<svg xmlns="http://www.w3.org/2000/svg" xmlns:xlink="http://www.w3.org/1999/xlink" width="48" zoomAndPan="magnify" viewBox="0 0 36 36.000001" height="48" preserveAspectRatio="xMidYMid meet" version="1.0"><defs><g/><clipPath id="54a6655a7c"><rect x="0" width="34" y="0" height="7"/></clipPath></defs><g transform="matrix(1, 0, 0, 1, 1, 14)"><g clip-path="url(#54a6655a7c)"><g fill="#f9680e" fill-opacity="1"><g transform="translate(1.09554, 5.264867)"><g><path d="M 0.203125 -3.390625 C 0.203125 -3.460938 0.203125 -3.519531 0.203125 -3.5625 C 0.210938 -3.601562 0.234375 -3.648438 0.265625 -3.703125 C 0.316406 -3.796875 0.453125 -3.84375 0.671875 -3.84375 C 0.921875 -3.84375 1.066406 -3.78125 1.109375 -3.65625 C 1.128906 -3.59375 1.140625 -3.5 1.140625 -3.375 L 1.140625 -0.46875 C 1.140625 -0.382812 1.132812 -0.320312 1.125 -0.28125 C 1.125 -0.238281 1.109375 -0.191406 1.078125 -0.140625 C 1.035156 -0.046875 0.898438 0 0.671875 0 C 0.421875 0 0.273438 -0.0664062 0.234375 -0.203125 C 0.210938 -0.253906 0.203125 -0.34375 0.203125 -0.46875 Z M 0.203125 -3.390625 "/></g></g></g><g fill="#f9680e" fill-opacity="1"><g transform="translate(2.444425, 5.264867)"><g><path d="M 0.265625 -0.546875 C 0.171875 -0.648438 0.125 -0.742188 0.125 -0.828125 C 0.125 -0.921875 0.203125 -1.046875 0.359375 -1.203125 C 0.441406 -1.285156 0.53125 -1.328125 0.625 -1.328125 C 0.726562 -1.328125 0.867188 -1.238281 1.046875 -1.0625 C 1.097656 -1 1.164062 -0.941406 1.25 -0.890625 C 1.34375 -0.835938 1.425781 -0.8125 1.5 -0.8125 C 1.832031 -0.8125 2 -0.941406 2 -1.203125 C 2 -1.285156 1.953125 -1.351562 1.859375 -1.40625 C 1.773438 -1.457031 1.664062 -1.492188 1.53125 -1.515625 C 1.394531 -1.546875 1.25 -1.585938 1.09375 -1.640625 C 0.9375 -1.703125 0.789062 -1.769531 0.65625 -1.84375 C 0.53125 -1.914062 0.421875 -2.03125 0.328125 -2.1875 C 0.242188 -2.34375 0.203125 -2.535156 0.203125 -2.765625 C 0.203125 -3.066406 0.316406 -3.332031 0.546875 -3.5625 C 0.773438 -3.789062 1.085938 -3.90625 1.484375 -3.90625 C 1.691406 -3.90625 1.878906 -3.878906 2.046875 -3.828125 C 2.222656 -3.773438 2.347656 -3.722656 2.421875 -3.671875 L 2.546875 -3.5625 C 2.648438 -3.457031 2.703125 -3.367188 2.703125 -3.296875 C 2.703125 -3.234375 2.660156 -3.140625 2.578125 -3.015625 C 2.460938 -2.835938 2.34375 -2.75 2.21875 -2.75 C 2.144531 -2.75 2.050781 -2.785156 1.9375 -2.859375 C 1.925781 -2.867188 1.90625 -2.882812 1.875 -2.90625 C 1.851562 -2.9375 1.828125 -2.960938 1.796875 -2.984375 C 1.722656 -3.023438 1.628906 -3.046875 1.515625 -3.046875 C 1.398438 -3.046875 1.304688 -3.019531 1.234375 -2.96875 C 1.160156 -2.914062 1.125 -2.835938 1.125 -2.734375 C 1.125 -2.640625 1.164062 -2.5625 1.25 -2.5 C 1.34375 -2.445312 1.457031 -2.410156 1.59375 -2.390625 C 1.726562 -2.367188 1.875 -2.332031 2.03125 -2.28125 C 2.1875 -2.238281 2.328125 -2.1875 2.453125 -2.125 C 2.585938 -2.0625 2.695312 -1.953125 2.78125 -1.796875 C 2.875 -1.640625 2.921875 -1.445312 2.921875 -1.21875 C 2.921875 -1 2.875 -0.800781 2.78125 -0.625 C 2.695312 -0.457031 2.582031 -0.320312 2.4375 -0.21875 C 2.15625 -0.0390625 1.851562 0.046875 1.53125 0.046875 C 1.363281 0.046875 1.207031 0.03125 1.0625 0 C 0.914062 -0.0390625 0.796875 -0.09375 0.703125 -0.15625 C 0.515625 -0.269531 0.382812 -0.378906 0.3125 -0.484375 Z M 0.265625 -0.546875 "/></g></g></g><g fill="#f9680e" fill-opacity="1"><g transform="translate(5.504346, 5.264867)"><g><path d="M 4.296875 -3.703125 C 4.328125 -3.648438 4.34375 -3.601562 4.34375 -3.5625 C 4.351562 -3.519531 4.359375 -3.457031 4.359375 -3.375 L 4.359375 -0.46875 C 4.359375 -0.21875 4.289062 -0.0703125 4.15625 -0.03125 C 4.09375 -0.0078125 4.007812 0 3.90625 0 C 3.800781 0 3.71875 -0.0078125 3.65625 -0.03125 C 3.601562 -0.0507812 3.5625 -0.0703125 3.53125 -0.09375 C 3.5 -0.113281 3.472656 -0.148438 3.453125 -0.203125 C 3.429688 -0.253906 3.421875 -0.34375 3.421875 -0.46875 L 3.421875 -2.234375 C 3.335938 -2.117188 3.210938 -1.941406 3.046875 -1.703125 C 2.878906 -1.472656 2.769531 -1.328125 2.71875 -1.265625 C 2.675781 -1.210938 2.644531 -1.171875 2.625 -1.140625 C 2.613281 -1.117188 2.570312 -1.085938 2.5 -1.046875 C 2.4375 -1.015625 2.363281 -1 2.28125 -1 C 2.195312 -1 2.125 -1.015625 2.0625 -1.046875 C 2 -1.085938 1.953125 -1.125 1.921875 -1.15625 L 1.890625 -1.21875 C 1.816406 -1.300781 1.675781 -1.484375 1.46875 -1.765625 C 1.257812 -2.054688 1.148438 -2.210938 1.140625 -2.234375 L 1.140625 -0.46875 C 1.140625 -0.382812 1.132812 -0.320312 1.125 -0.28125 C 1.125 -0.238281 1.109375 -0.191406 1.078125 -0.140625 C 1.023438 -0.046875 0.890625 0 0.671875 0 C 0.453125 0 0.316406 -0.046875 0.265625 -0.140625 C 0.234375 -0.191406 0.210938 -0.238281 0.203125 -0.28125 C 0.203125 -0.320312 0.203125 -0.382812 0.203125 -0.46875 L 0.203125 -3.390625 C 0.203125 -3.460938 0.203125 -3.519531 0.203125 -3.5625 C 0.210938 -3.601562 0.234375 -3.648438 0.265625 -3.703125 C 0.316406 -3.796875 0.453125 -3.84375 0.671875 -3.84375 C 0.765625 -3.84375 0.847656 -3.832031 0.921875 -3.8125 C 0.992188 -3.789062 1.039062 -3.765625 1.0625 -3.734375 L 1.09375 -3.703125 L 2.28125 -2.140625 C 2.875 -2.929688 3.269531 -3.453125 3.46875 -3.703125 C 3.53125 -3.796875 3.671875 -3.84375 3.890625 -3.84375 C 4.109375 -3.84375 4.242188 -3.796875 4.296875 -3.703125 Z M 4.296875 -3.703125 "/></g></g></g><g fill="#f9680e" fill-opacity="1"><g transform="translate(10.070612, 5.264867)"><g><path d="M 2.015625 -3.890625 C 2.535156 -3.890625 2.984375 -3.703125 3.359375 -3.328125 C 3.742188 -2.953125 3.9375 -2.488281 3.9375 -1.9375 C 3.9375 -1.382812 3.753906 -0.910156 3.390625 -0.515625 C 3.023438 -0.128906 2.578125 0.0625 2.046875 0.0625 C 1.515625 0.0625 1.0625 -0.128906 0.6875 -0.515625 C 0.3125 -0.898438 0.125 -1.359375 0.125 -1.890625 C 0.125 -2.179688 0.175781 -2.453125 0.28125 -2.703125 C 0.394531 -2.960938 0.535156 -3.175781 0.703125 -3.34375 C 0.878906 -3.507812 1.082031 -3.640625 1.3125 -3.734375 C 1.539062 -3.835938 1.773438 -3.890625 2.015625 -3.890625 Z M 1.0625 -1.921875 C 1.0625 -1.609375 1.160156 -1.351562 1.359375 -1.15625 C 1.566406 -0.957031 1.789062 -0.859375 2.03125 -0.859375 C 2.28125 -0.859375 2.503906 -0.953125 2.703125 -1.140625 C 2.910156 -1.335938 3.015625 -1.59375 3.015625 -1.90625 C 3.015625 -2.226562 2.910156 -2.484375 2.703125 -2.671875 C 2.503906 -2.867188 2.28125 -2.96875 2.03125 -2.96875 C 1.78125 -2.96875 1.554688 -2.867188 1.359375 -2.671875 C 1.160156 -2.484375 1.0625 -2.234375 1.0625 -1.921875 Z M 1.0625 -1.921875 "/></g></g></g><g fill="#ffffff" fill-opacity="1"><g transform="translate(14.143107, 5.264867)"><g><path d="M 2.21875 -2.328125 L 3.140625 -2.328125 C 3.328125 -2.316406 3.441406 -2.265625 3.484375 -2.171875 C 3.515625 -2.109375 3.53125 -2.007812 3.53125 -1.875 L 3.53125 -0.71875 C 3.53125 -0.613281 3.484375 -0.507812 3.390625 -0.40625 C 3.097656 -0.101562 2.65625 0.046875 2.0625 0.046875 C 1.539062 0.046875 1.085938 -0.144531 0.703125 -0.53125 C 0.316406 -0.925781 0.125 -1.398438 0.125 -1.953125 C 0.125 -2.515625 0.320312 -2.984375 0.71875 -3.359375 C 1.113281 -3.734375 1.578125 -3.921875 2.109375 -3.921875 C 2.515625 -3.921875 2.90625 -3.78125 3.28125 -3.5 C 3.375 -3.4375 3.421875 -3.359375 3.421875 -3.265625 C 3.421875 -3.179688 3.378906 -3.085938 3.296875 -2.984375 C 3.160156 -2.796875 3.035156 -2.703125 2.921875 -2.703125 C 2.859375 -2.703125 2.753906 -2.75 2.609375 -2.84375 C 2.460938 -2.9375 2.285156 -2.984375 2.078125 -2.984375 C 1.816406 -2.984375 1.582031 -2.890625 1.375 -2.703125 C 1.164062 -2.515625 1.0625 -2.269531 1.0625 -1.96875 C 1.0625 -1.664062 1.164062 -1.40625 1.375 -1.1875 C 1.582031 -0.976562 1.820312 -0.875 2.09375 -0.875 C 2.28125 -0.875 2.453125 -0.90625 2.609375 -0.96875 L 2.609375 -1.546875 L 2.1875 -1.546875 C 2.082031 -1.546875 2.003906 -1.554688 1.953125 -1.578125 C 1.910156 -1.609375 1.882812 -1.648438 1.875 -1.703125 C 1.863281 -1.765625 1.859375 -1.84375 1.859375 -1.9375 C 1.859375 -2.03125 1.863281 -2.101562 1.875 -2.15625 C 1.894531 -2.207031 1.925781 -2.242188 1.96875 -2.265625 C 2.03125 -2.304688 2.113281 -2.328125 2.21875 -2.328125 Z M 2.21875 -2.328125 "/></g></g></g><g fill="#ffffff" fill-opacity="1"><g transform="translate(17.890592, 5.264867)"><g><path d="M 2.71875 -3.703125 C 2.757812 -3.765625 2.8125 -3.804688 2.875 -3.828125 C 2.945312 -3.847656 3.03125 -3.859375 3.125 -3.859375 C 3.226562 -3.859375 3.304688 -3.847656 3.359375 -3.828125 C 3.421875 -3.804688 3.46875 -3.785156 3.5 -3.765625 C 3.53125 -3.742188 3.550781 -3.707031 3.5625 -3.65625 C 3.582031 -3.59375 3.59375 -3.5 3.59375 -3.375 L 3.59375 -1.796875 C 3.59375 -1.335938 3.453125 -0.914062 3.171875 -0.53125 C 3.035156 -0.351562 2.851562 -0.207031 2.625 -0.09375 C 2.40625 0.0078125 2.160156 0.0625 1.890625 0.0625 C 1.628906 0.0625 1.390625 0.0078125 1.171875 -0.09375 C 0.953125 -0.207031 0.773438 -0.359375 0.640625 -0.546875 C 0.347656 -0.921875 0.203125 -1.34375 0.203125 -1.8125 L 0.203125 -3.390625 C 0.203125 -3.472656 0.203125 -3.535156 0.203125 -3.578125 C 0.210938 -3.617188 0.234375 -3.664062 0.265625 -3.71875 C 0.296875 -3.769531 0.34375 -3.804688 0.40625 -3.828125 C 0.476562 -3.847656 0.566406 -3.859375 0.671875 -3.859375 C 0.785156 -3.859375 0.875 -3.847656 0.9375 -3.828125 C 1.007812 -3.804688 1.054688 -3.769531 1.078125 -3.71875 C 1.117188 -3.632812 1.140625 -3.519531 1.140625 -3.375 L 1.140625 -1.8125 C 1.140625 -1.59375 1.191406 -1.390625 1.296875 -1.203125 C 1.347656 -1.097656 1.425781 -1.015625 1.53125 -0.953125 C 1.644531 -0.898438 1.769531 -0.875 1.90625 -0.875 C 2.164062 -0.875 2.359375 -0.96875 2.484375 -1.15625 C 2.609375 -1.34375 2.671875 -1.5625 2.671875 -1.8125 L 2.671875 -3.421875 C 2.671875 -3.554688 2.6875 -3.648438 2.71875 -3.703125 Z M 2.71875 -3.703125 "/></g></g></g><g fill="#ffffff" fill-opacity="1"><g transform="translate(21.701059, 5.264867)"><g><path d="M 2.4375 -3.578125 L 3.84375 -0.640625 C 3.90625 -0.523438 3.9375 -0.4375 3.9375 -0.375 C 3.9375 -0.25 3.835938 -0.132812 3.640625 -0.03125 C 3.515625 0.0195312 3.414062 0.046875 3.34375 0.046875 C 3.28125 0.046875 3.226562 0.03125 3.1875 0 C 3.144531 -0.03125 3.113281 -0.0625 3.09375 -0.09375 C 3.070312 -0.125 3.046875 -0.175781 3.015625 -0.25 L 2.734375 -0.8125 L 1.28125 -0.8125 L 1.015625 -0.25 C 0.972656 -0.175781 0.941406 -0.125 0.921875 -0.09375 C 0.898438 -0.0625 0.867188 -0.03125 0.828125 0 C 0.785156 0.03125 0.726562 0.046875 0.65625 0.046875 C 0.59375 0.046875 0.503906 0.015625 0.390625 -0.046875 C 0.179688 -0.140625 0.078125 -0.25 0.078125 -0.375 C 0.078125 -0.4375 0.109375 -0.523438 0.171875 -0.640625 L 1.578125 -3.578125 C 1.617188 -3.660156 1.675781 -3.722656 1.75 -3.765625 C 1.832031 -3.816406 1.921875 -3.84375 2.015625 -3.84375 C 2.203125 -3.84375 2.34375 -3.753906 2.4375 -3.578125 Z M 2 -2.3125 L 1.65625 -1.59375 L 2.359375 -1.59375 Z M 2 -2.3125 "/></g></g></g><g fill="#ffffff" fill-opacity="1"><g transform="translate(25.716222, 5.264867)"><g><path d="M 0.46875 -3.859375 L 3.375 -3.859375 C 3.488281 -3.859375 3.570312 -3.84375 3.625 -3.8125 C 3.675781 -3.789062 3.710938 -3.75 3.734375 -3.6875 C 3.753906 -3.632812 3.765625 -3.5625 3.765625 -3.46875 C 3.765625 -3.375 3.753906 -3.300781 3.734375 -3.25 C 3.710938 -3.195312 3.679688 -3.160156 3.640625 -3.140625 C 3.578125 -3.109375 3.488281 -3.09375 3.375 -3.09375 L 2.375 -3.09375 L 2.375 -0.453125 C 2.375 -0.367188 2.367188 -0.304688 2.359375 -0.265625 C 2.359375 -0.234375 2.34375 -0.191406 2.3125 -0.140625 C 2.289062 -0.0859375 2.242188 -0.0507812 2.171875 -0.03125 C 2.109375 -0.0078125 2.019531 0 1.90625 0 C 1.800781 0 1.71875 -0.0078125 1.65625 -0.03125 C 1.59375 -0.0507812 1.546875 -0.0859375 1.515625 -0.140625 C 1.492188 -0.191406 1.476562 -0.238281 1.46875 -0.28125 C 1.46875 -0.320312 1.46875 -0.378906 1.46875 -0.453125 L 1.46875 -3.09375 L 0.453125 -3.09375 C 0.335938 -3.09375 0.253906 -3.101562 0.203125 -3.125 C 0.148438 -3.15625 0.113281 -3.195312 0.09375 -3.25 C 0.0820312 -3.3125 0.078125 -3.382812 0.078125 -3.46875 C 0.078125 -3.5625 0.0820312 -3.632812 0.09375 -3.6875 C 0.113281 -3.75 0.144531 -3.789062 0.1875 -3.8125 C 0.25 -3.84375 0.34375 -3.859375 0.46875 -3.859375 Z M 0.46875 -3.859375 "/></g></g></g><g fill="#ffffff" fill-opacity="1"><g transform="translate(29.552931, 5.264867)"><g><path d="M 1.140625 -0.921875 L 2.75 -0.921875 C 2.832031 -0.921875 2.894531 -0.914062 2.9375 -0.90625 C 2.976562 -0.90625 3.023438 -0.894531 3.078125 -0.875 C 3.171875 -0.820312 3.21875 -0.6875 3.21875 -0.46875 C 3.21875 -0.21875 3.15625 -0.0703125 3.03125 -0.03125 C 2.96875 -0.0078125 2.875 0 2.75 0 L 0.671875 0 C 0.421875 0 0.273438 -0.0664062 0.234375 -0.203125 C 0.210938 -0.253906 0.203125 -0.34375 0.203125 -0.46875 L 0.203125 -3.390625 C 0.203125 -3.566406 0.234375 -3.6875 0.296875 -3.75 C 0.367188 -3.8125 0.5 -3.84375 0.6875 -3.84375 L 2.75 -3.84375 C 2.832031 -3.84375 2.894531 -3.835938 2.9375 -3.828125 C 2.976562 -3.828125 3.023438 -3.816406 3.078125 -3.796875 C 3.171875 -3.742188 3.21875 -3.601562 3.21875 -3.375 C 3.21875 -3.132812 3.15625 -2.992188 3.03125 -2.953125 C 2.96875 -2.929688 2.875 -2.921875 2.75 -2.921875 L 1.140625 -2.921875 L 1.140625 -2.390625 L 2.171875 -2.390625 C 2.253906 -2.390625 2.316406 -2.382812 2.359375 -2.375 C 2.398438 -2.375 2.445312 -2.359375 2.5 -2.328125 C 2.59375 -2.273438 2.640625 -2.140625 2.640625 -1.921875 C 2.640625 -1.671875 2.570312 -1.523438 2.4375 -1.484375 C 2.382812 -1.460938 2.296875 -1.453125 2.171875 -1.453125 L 1.140625 -1.453125 Z M 1.140625 -0.921875 "/></g></g></g></g></g></svg>