<svg xmlns="http://www.w3.org/2000/svg" xmlns:xlink="http://www.w3.org/1999/xlink" width="100" zoomAndPan="magnify" viewBox="0 0 75 74.999997" height="100" preserveAspectRatio="xMidYMid meet" version="1.0"><defs><g/><clipPath id="cb16f1f941"><path d="M 11 7 L 16 7 L 16 18.863281 L 11 18.863281 Z M 11 7 " clip-rule="nonzero"/></clipPath><clipPath id="bb771f2892"><path d="M 12.335938 6.851562 L 16.128906 6.851562 L 16.128906 18.863281 L 12.335938 18.863281 Z M 12.335938 6.851562 " clip-rule="nonzero"/></clipPath><clipPath id="abc9d4667d"><path d="M 1 7 L 5 7 L 5 18.863281 L 1 18.863281 Z M 1 7 " clip-rule="nonzero"/></clipPath><clipPath id="7b5e5ebc87"><path d="M 0.492188 6.851562 L 5 6.851562 L 5 18.863281 L 0.492188 18.863281 Z M 0.492188 6.851562 " clip-rule="nonzero"/></clipPath><clipPath id="cc4bdfba7c"><rect x="0" width="64" y="0" height="71"/></clipPath><clipPath id="20ae7893e7"><path d="M 0.160156 3 L 3 3 L 3 11 L 0.160156 11 Z M 0.160156 3 " clip-rule="nonzero"/></clipPath><clipPath id="9e6401f4d4"><path d="M 17 5 L 22.960938 5 L 22.960938 11 L 17 11 Z M 17 5 " clip-rule="nonzero"/></clipPath><clipPath id="4887a9bed1"><rect x="0" width="23" y="0" height="19"/></clipPath></defs><g transform="matrix(1, 0, 0, 1, 9, -0.000000000000001893)"><g clip-path="url(#cc4bdfba7c)"><g fill="#ffffff" fill-opacity="1"><g transform="translate(1.321616, 52.682255)"><g><path d="M 11.59375 -26.625 C 11.59375 -25.914062 11.59375 -24.882812 11.59375 -23.53125 C 11.59375 -22.1875 11.582031 -20.742188 11.5625 -19.203125 C 11.539062 -17.660156 11.519531 -16.265625 11.5 -15.015625 C 11.476562 -13.773438 11.46875 -12.90625 11.46875 -12.40625 C 11.425781 -11.78125 11.375 -11.15625 11.3125 -10.53125 C 11.25 -9.90625 11.15625 -9.285156 11.03125 -8.671875 C 10.738281 -7.003906 10.15625 -5.722656 9.28125 -4.828125 C 8.414062 -3.929688 7.421875 -3.523438 6.296875 -3.609375 C 5.171875 -3.691406 4.191406 -4.210938 3.359375 -5.171875 C 2.535156 -6.128906 2.207031 -7.421875 2.375 -9.046875 C 2.625 -12.117188 2.992188 -15.179688 3.484375 -18.234375 C 3.984375 -21.285156 4.503906 -24.351562 5.046875 -27.4375 C 5.210938 -28.257812 5.617188 -28.921875 6.265625 -29.421875 C 6.910156 -29.921875 7.710938 -30.109375 8.671875 -29.984375 C 9.617188 -29.898438 10.332031 -29.535156 10.8125 -28.890625 C 11.289062 -28.253906 11.550781 -27.5 11.59375 -26.625 Z M 6.921875 -35.34375 C 5.921875 -35.382812 5.078125 -35.789062 4.390625 -36.5625 C 3.703125 -37.332031 3.359375 -38.257812 3.359375 -39.34375 C 3.359375 -40.414062 3.734375 -41.335938 4.484375 -42.109375 C 5.234375 -42.878906 6.148438 -43.265625 7.234375 -43.265625 C 8.273438 -43.265625 9.15625 -42.898438 9.875 -42.171875 C 10.601562 -41.441406 10.945312 -40.539062 10.90625 -39.46875 C 10.90625 -38.34375 10.5 -37.363281 9.6875 -36.53125 C 8.882812 -35.695312 7.960938 -35.300781 6.921875 -35.34375 Z M 6.921875 -35.34375 "/></g></g></g><g fill="#ffffff" fill-opacity="1"><g transform="translate(12.105086, 52.994697)"><g><path d="M 48.546875 -13.828125 C 48.628906 -13.003906 48.679688 -12.164062 48.703125 -11.3125 C 48.722656 -10.457031 48.691406 -9.613281 48.609375 -8.78125 C 48.441406 -7.457031 47.992188 -6.347656 47.265625 -5.453125 C 46.535156 -4.554688 45.648438 -4.023438 44.609375 -3.859375 C 43.285156 -3.609375 42.125 -3.753906 41.125 -4.296875 C 40.125 -4.835938 39.398438 -5.648438 38.953125 -6.734375 C 38.410156 -8.097656 37.992188 -9.523438 37.703125 -11.015625 C 37.410156 -12.515625 37.117188 -14.015625 36.828125 -15.515625 C 36.660156 -16.179688 36.566406 -16.863281 36.546875 -17.5625 C 36.523438 -18.269531 36.472656 -18.957031 36.390625 -19.625 C 36.265625 -19.664062 36.078125 -19.707031 35.828125 -19.75 C 34.910156 -18.550781 34.117188 -17.296875 33.453125 -15.984375 C 32.796875 -14.671875 32.40625 -13.226562 32.28125 -11.65625 C 32.238281 -11.070312 32.21875 -10.476562 32.21875 -9.875 C 32.21875 -9.269531 32.175781 -8.675781 32.09375 -8.09375 C 31.882812 -6.519531 31.28125 -5.273438 30.28125 -4.359375 C 29.28125 -3.441406 28.097656 -3.003906 26.734375 -3.046875 C 25.359375 -3.085938 24.191406 -3.617188 23.234375 -4.640625 C 22.285156 -5.660156 21.789062 -6.976562 21.75 -8.59375 C 21.75 -9.757812 21.800781 -10.921875 21.90625 -12.078125 C 22.007812 -13.242188 22.039062 -14.410156 22 -15.578125 C 22 -16.828125 21.957031 -18.050781 21.875 -19.25 C 21.789062 -20.457031 21.726562 -21.664062 21.6875 -22.875 C 21.519531 -22.914062 21.363281 -22.96875 21.21875 -23.03125 C 21.070312 -23.09375 20.914062 -23.144531 20.75 -23.1875 C 20.25 -22.5625 19.707031 -21.945312 19.125 -21.34375 C 18.539062 -20.738281 18.109375 -20.082031 17.828125 -19.375 C 17.117188 -17.800781 16.472656 -16.210938 15.890625 -14.609375 C 15.304688 -13.015625 14.722656 -11.425781 14.140625 -9.84375 C 13.972656 -9.382812 13.828125 -8.914062 13.703125 -8.4375 C 13.578125 -7.96875 13.410156 -7.503906 13.203125 -7.046875 C 12.128906 -4.460938 10.328125 -3.234375 7.796875 -3.359375 C 6.671875 -3.398438 5.660156 -3.773438 4.765625 -4.484375 C 3.867188 -5.191406 3.234375 -6.148438 2.859375 -7.359375 C 2.691406 -7.804688 2.546875 -8.28125 2.421875 -8.78125 C 2.304688 -9.28125 2.269531 -9.757812 2.3125 -10.21875 C 3.007812 -16.03125 3.796875 -21.910156 4.671875 -27.859375 C 4.710938 -28.347656 4.835938 -28.84375 5.046875 -29.34375 C 5.253906 -29.84375 5.546875 -30.238281 5.921875 -30.53125 C 6.378906 -30.90625 6.925781 -31.269531 7.5625 -31.625 C 8.207031 -31.976562 8.78125 -32.113281 9.28125 -32.03125 C 9.820312 -31.945312 10.34375 -31.644531 10.84375 -31.125 C 11.34375 -30.601562 11.757812 -30.09375 12.09375 -29.59375 C 12.382812 -29.175781 12.5625 -28.695312 12.625 -28.15625 C 12.6875 -27.625 12.78125 -27.085938 12.90625 -26.546875 C 15.101562 -28.078125 16.914062 -29.226562 18.34375 -30 C 19.78125 -30.769531 21.023438 -31.144531 22.078125 -31.125 C 23.140625 -31.101562 24.210938 -30.664062 25.296875 -29.8125 C 26.378906 -28.96875 27.644531 -27.710938 29.09375 -26.046875 C 29.382812 -26.421875 29.644531 -26.804688 29.875 -27.203125 C 30.101562 -27.597656 30.382812 -27.941406 30.71875 -28.234375 C 32.257812 -29.722656 33.898438 -30.65625 35.640625 -31.03125 C 37.390625 -31.40625 39.082031 -31.21875 40.71875 -30.46875 C 42.363281 -29.71875 43.785156 -28.429688 44.984375 -26.609375 C 46.273438 -24.691406 47.117188 -22.644531 47.515625 -20.46875 C 47.910156 -18.289062 48.253906 -16.078125 48.546875 -13.828125 Z M 48.546875 -13.828125 "/></g></g></g><path fill="#ffffff" d="M 10.164062 13.304688 C 10.164062 14.28125 9.371094 15.074219 8.390625 15.074219 C 7.414062 15.074219 6.621094 14.28125 6.621094 13.304688 C 6.621094 12.328125 7.414062 11.535156 8.390625 11.535156 C 9.371094 11.535156 10.164062 12.328125 10.164062 13.304688 " fill-opacity="1" fill-rule="nonzero"/><path fill="#ffffff" d="M 10.488281 10.859375 C 10.902344 11.035156 11.265625 11.347656 11.523438 11.730469 C 11.789062 12.117188 11.949219 12.578125 11.988281 13.046875 C 12.023438 13.515625 11.945312 13.996094 11.746094 14.417969 C 11.550781 14.839844 11.246094 15.207031 10.863281 15.449219 C 11.125 15.082031 11.320312 14.699219 11.441406 14.300781 C 11.558594 13.902344 11.605469 13.488281 11.570312 13.082031 C 11.507812 12.257812 11.121094 11.488281 10.488281 10.859375 " fill-opacity="1" fill-rule="nonzero"/><path fill="#ffffff" d="M 10.917969 9.828125 C 11.484375 10.097656 11.988281 10.523438 12.355469 11.054688 C 12.726562 11.578125 12.953125 12.210938 13.027344 12.855469 C 13.09375 13.5 13.003906 14.160156 12.753906 14.753906 C 12.511719 15.351562 12.105469 15.875 11.609375 16.253906 C 12.429688 15.308594 12.835938 14.082031 12.699219 12.886719 C 12.582031 11.691406 11.917969 10.582031 10.917969 9.828125 " fill-opacity="1" fill-rule="nonzero"/><path fill="#ffffff" d="M 11.414062 8.847656 C 12.140625 9.214844 12.773438 9.78125 13.238281 10.460938 C 13.707031 11.144531 13.988281 11.953125 14.074219 12.777344 C 14.152344 13.601562 14.035156 14.449219 13.71875 15.214844 C 13.398438 15.976562 12.886719 16.65625 12.25 17.15625 C 12.820312 16.582031 13.273438 15.894531 13.542969 15.144531 C 13.816406 14.398438 13.925781 13.589844 13.835938 12.800781 C 13.769531 12.007812 13.5 11.242188 13.082031 10.5625 C 12.664062 9.882812 12.089844 9.300781 11.414062 8.847656 " fill-opacity="1" fill-rule="nonzero"/><g clip-path="url(#cb16f1f941)"><path fill="#ffffff" d="M 11.960938 7.898438 C 12.835938 8.375 13.59375 9.070312 14.144531 9.910156 C 14.699219 10.75 15.039062 11.726562 15.128906 12.730469 C 15.214844 13.730469 15.066406 14.757812 14.675781 15.683594 C 14.285156 16.609375 13.660156 17.429688 12.886719 18.054688 C 13.625 17.386719 14.203125 16.554688 14.566406 15.640625 C 14.925781 14.722656 15.074219 13.722656 14.976562 12.742188 C 14.902344 11.761719 14.570312 10.808594 14.046875 9.972656 C 13.523438 9.136719 12.808594 8.421875 11.960938 7.898438 " fill-opacity="1" fill-rule="nonzero"/></g><g clip-path="url(#bb771f2892)"><path fill="#ffffff" d="M 12.339844 6.851562 C 13.390625 7.410156 14.300781 8.234375 14.964844 9.226562 C 15.632812 10.210938 16.050781 11.371094 16.167969 12.558594 C 16.289062 13.75 16.113281 14.964844 15.660156 16.070312 C 15.210938 17.175781 14.480469 18.160156 13.5625 18.921875 C 14.464844 18.144531 15.179688 17.15625 15.625 16.054688 C 16.0625 14.953125 16.230469 13.742188 16.105469 12.566406 C 15.996094 11.386719 15.589844 10.234375 14.929688 9.25 C 14.269531 8.261719 13.375 7.429688 12.339844 6.851562 " fill-opacity="1" fill-rule="nonzero"/></g><path fill="#ffffff" d="M 6.296875 10.859375 C 5.664062 11.488281 5.277344 12.257812 5.214844 13.082031 C 5.179688 13.488281 5.226562 13.902344 5.34375 14.300781 C 5.464844 14.699219 5.660156 15.082031 5.921875 15.449219 C 5.539062 15.207031 5.234375 14.839844 5.039062 14.417969 C 4.839844 13.996094 4.761719 13.515625 4.796875 13.046875 C 4.835938 12.578125 4.996094 12.117188 5.261719 11.730469 C 5.519531 11.347656 5.882812 11.035156 6.296875 10.859375 " fill-opacity="1" fill-rule="nonzero"/><path fill="#ffffff" d="M 5.867188 9.828125 C 4.867188 10.582031 4.203125 11.691406 4.085938 12.886719 C 3.949219 14.082031 4.355469 15.308594 5.175781 16.253906 C 4.679688 15.875 4.273438 15.351562 4.03125 14.753906 C 3.78125 14.160156 3.691406 13.5 3.757812 12.855469 C 3.832031 12.210938 4.058594 11.578125 4.429688 11.054688 C 4.796875 10.523438 5.300781 10.097656 5.867188 9.828125 " fill-opacity="1" fill-rule="nonzero"/><path fill="#ffffff" d="M 5.371094 8.847656 C 4.695312 9.300781 4.121094 9.882812 3.703125 10.5625 C 3.285156 11.242188 3.015625 12.007812 2.949219 12.800781 C 2.859375 13.589844 2.96875 14.398438 3.242188 15.144531 C 3.511719 15.894531 3.964844 16.582031 4.535156 17.15625 C 3.898438 16.65625 3.386719 15.976562 3.066406 15.214844 C 2.75 14.449219 2.632812 13.601562 2.710938 12.777344 C 2.796875 11.953125 3.078125 11.144531 3.546875 10.460938 C 4.011719 9.78125 4.644531 9.214844 5.371094 8.847656 " fill-opacity="1" fill-rule="nonzero"/><g clip-path="url(#abc9d4667d)"><path fill="#ffffff" d="M 4.824219 7.898438 C 3.976562 8.421875 3.261719 9.136719 2.738281 9.972656 C 2.214844 10.808594 1.882812 11.761719 1.808594 12.742188 C 1.710938 13.722656 1.859375 14.722656 2.21875 15.640625 C 2.582031 16.554688 3.160156 17.386719 3.898438 18.054688 C 3.125 17.429688 2.5 16.609375 2.109375 15.683594 C 1.71875 14.757812 1.570312 13.730469 1.65625 12.730469 C 1.746094 11.726562 2.085938 10.75 2.640625 9.910156 C 3.191406 9.070312 3.949219 8.375 4.824219 7.898438 " fill-opacity="1" fill-rule="nonzero"/></g><g clip-path="url(#7b5e5ebc87)"><path fill="#ffffff" d="M 4.445312 6.851562 C 3.410156 7.429688 2.515625 8.261719 1.855469 9.25 C 1.195312 10.234375 0.789062 11.386719 0.679688 12.566406 C 0.554688 13.742188 0.722656 14.953125 1.164062 16.054688 C 1.605469 17.15625 2.320312 18.144531 3.222656 18.921875 C 2.304688 18.160156 1.574219 17.175781 1.125 16.070312 C 0.671875 14.964844 0.496094 13.75 0.617188 12.558594 C 0.734375 11.371094 1.152344 10.210938 1.820312 9.226562 C 2.484375 8.234375 3.394531 7.410156 4.445312 6.851562 " fill-opacity="1" fill-rule="nonzero"/></g></g></g><g transform="matrix(1, 0, 0, 1, 26, 49)"><g clip-path="url(#4887a9bed1)"><g fill="#ffffff" fill-opacity="1"><g transform="translate(3.113957, 17.24396)"><g><path d="M 1.453125 -1.109375 C 1.566406 -0.992188 1.632812 -0.875 1.65625 -0.75 C 1.675781 -0.632812 1.648438 -0.519531 1.578125 -0.40625 C 1.515625 -0.300781 1.410156 -0.222656 1.265625 -0.171875 C 1.191406 -0.140625 1.113281 -0.113281 1.03125 -0.09375 C 0.957031 -0.0820312 0.882812 -0.078125 0.8125 -0.078125 C 0.738281 -0.0859375 0.664062 -0.101562 0.59375 -0.125 C 0.53125 -0.15625 0.46875 -0.191406 0.40625 -0.234375 C 0.332031 -0.273438 0.285156 -0.332031 0.265625 -0.40625 C 0.242188 -0.476562 0.25 -0.550781 0.28125 -0.625 C 0.3125 -0.675781 0.359375 -0.71875 0.421875 -0.75 C 0.484375 -0.78125 0.554688 -0.789062 0.640625 -0.78125 C 0.703125 -0.769531 0.765625 -0.757812 0.828125 -0.75 C 0.890625 -0.75 0.945312 -0.75 1 -0.75 C 1.007812 -0.75 1.015625 -0.753906 1.015625 -0.765625 C 1.015625 -0.773438 1.015625 -0.785156 1.015625 -0.796875 C 0.972656 -0.804688 0.925781 -0.816406 0.875 -0.828125 C 0.832031 -0.847656 0.789062 -0.867188 0.75 -0.890625 C 0.675781 -0.929688 0.597656 -0.96875 0.515625 -1 C 0.441406 -1.039062 0.375 -1.085938 0.3125 -1.140625 C 0.207031 -1.222656 0.148438 -1.320312 0.140625 -1.4375 C 0.128906 -1.550781 0.15625 -1.664062 0.21875 -1.78125 C 0.269531 -1.882812 0.351562 -1.972656 0.46875 -2.046875 C 0.582031 -2.128906 0.703125 -2.179688 0.828125 -2.203125 C 0.960938 -2.222656 1.085938 -2.21875 1.203125 -2.1875 C 1.296875 -2.15625 1.367188 -2.109375 1.421875 -2.046875 C 1.484375 -1.992188 1.519531 -1.921875 1.53125 -1.828125 C 1.539062 -1.785156 1.535156 -1.742188 1.515625 -1.703125 C 1.503906 -1.660156 1.488281 -1.625 1.46875 -1.59375 C 1.4375 -1.550781 1.394531 -1.535156 1.34375 -1.546875 C 1.300781 -1.554688 1.265625 -1.570312 1.234375 -1.59375 C 1.140625 -1.644531 1.054688 -1.660156 0.984375 -1.640625 C 0.910156 -1.628906 0.835938 -1.585938 0.765625 -1.515625 C 0.796875 -1.492188 0.828125 -1.476562 0.859375 -1.46875 C 0.890625 -1.457031 0.914062 -1.441406 0.9375 -1.421875 C 1.03125 -1.367188 1.117188 -1.316406 1.203125 -1.265625 C 1.296875 -1.222656 1.378906 -1.171875 1.453125 -1.109375 Z M 1.453125 -1.109375 "/></g></g></g><g fill="#ffffff" fill-opacity="1"><g transform="translate(6.611786, 17.24396)"><g><path d="M 1.34375 -1.796875 C 1.457031 -1.773438 1.554688 -1.734375 1.640625 -1.671875 C 1.722656 -1.609375 1.785156 -1.523438 1.828125 -1.421875 C 1.867188 -1.328125 1.878906 -1.222656 1.859375 -1.109375 C 1.847656 -0.972656 1.8125 -0.84375 1.75 -0.71875 C 1.695312 -0.601562 1.625 -0.5 1.53125 -0.40625 C 1.363281 -0.25 1.164062 -0.171875 0.9375 -0.171875 C 0.851562 -0.191406 0.769531 -0.207031 0.6875 -0.21875 C 0.613281 -0.226562 0.539062 -0.25 0.46875 -0.28125 C 0.3125 -0.332031 0.195312 -0.414062 0.125 -0.53125 C 0.0625 -0.644531 0.0390625 -0.785156 0.0625 -0.953125 C 0.09375 -1.128906 0.15625 -1.285156 0.25 -1.421875 C 0.351562 -1.566406 0.484375 -1.6875 0.640625 -1.78125 C 0.773438 -1.863281 0.921875 -1.882812 1.078125 -1.84375 C 1.117188 -1.832031 1.160156 -1.820312 1.203125 -1.8125 C 1.253906 -1.800781 1.300781 -1.796875 1.34375 -1.796875 Z M 1.234375 -1.0625 C 1.265625 -1.144531 1.242188 -1.210938 1.171875 -1.265625 C 1.097656 -1.316406 1.039062 -1.347656 1 -1.359375 C 0.96875 -1.378906 0.9375 -1.375 0.90625 -1.34375 C 0.875 -1.320312 0.832031 -1.273438 0.78125 -1.203125 C 0.769531 -1.179688 0.757812 -1.160156 0.75 -1.140625 C 0.675781 -1.015625 0.648438 -0.925781 0.671875 -0.875 C 0.703125 -0.820312 0.789062 -0.789062 0.9375 -0.78125 C 1.007812 -0.78125 1.066406 -0.800781 1.109375 -0.84375 C 1.148438 -0.882812 1.191406 -0.957031 1.234375 -1.0625 Z M 1.234375 -1.0625 "/></g></g></g><g fill="#ffffff" fill-opacity="1"><g transform="translate(10.261975, 17.24396)"><g><path d="M 1.875 -0.640625 C 1.894531 -0.554688 1.890625 -0.484375 1.859375 -0.421875 C 1.835938 -0.359375 1.800781 -0.316406 1.75 -0.296875 C 1.613281 -0.242188 1.5 -0.296875 1.40625 -0.453125 C 1.40625 -0.460938 1.398438 -0.46875 1.390625 -0.46875 C 1.390625 -0.46875 1.390625 -0.472656 1.390625 -0.484375 C 1.335938 -0.453125 1.289062 -0.414062 1.25 -0.375 C 1.207031 -0.34375 1.160156 -0.316406 1.109375 -0.296875 C 0.992188 -0.234375 0.878906 -0.203125 0.765625 -0.203125 C 0.660156 -0.210938 0.5625 -0.25 0.46875 -0.3125 C 0.375 -0.375 0.300781 -0.46875 0.25 -0.59375 C 0.164062 -0.789062 0.128906 -0.992188 0.140625 -1.203125 C 0.148438 -1.410156 0.195312 -1.613281 0.28125 -1.8125 C 0.300781 -1.851562 0.328125 -1.890625 0.359375 -1.921875 C 0.398438 -1.953125 0.445312 -1.960938 0.5 -1.953125 C 0.550781 -1.941406 0.585938 -1.914062 0.609375 -1.875 C 0.628906 -1.832031 0.640625 -1.785156 0.640625 -1.734375 C 0.648438 -1.660156 0.65625 -1.582031 0.65625 -1.5 C 0.65625 -1.425781 0.660156 -1.351562 0.671875 -1.28125 C 0.679688 -1.21875 0.691406 -1.15625 0.703125 -1.09375 C 0.710938 -1.039062 0.726562 -0.984375 0.75 -0.921875 C 0.769531 -0.859375 0.796875 -0.820312 0.828125 -0.8125 C 0.867188 -0.8125 0.910156 -0.835938 0.953125 -0.890625 C 0.984375 -0.929688 1.007812 -0.976562 1.03125 -1.03125 C 1.050781 -1.09375 1.070312 -1.148438 1.09375 -1.203125 C 1.125 -1.304688 1.148438 -1.410156 1.171875 -1.515625 C 1.191406 -1.628906 1.21875 -1.738281 1.25 -1.84375 C 1.257812 -1.90625 1.289062 -1.957031 1.34375 -2 C 1.40625 -2.039062 1.46875 -2.054688 1.53125 -2.046875 C 1.601562 -2.035156 1.660156 -2.003906 1.703125 -1.953125 C 1.742188 -1.910156 1.765625 -1.847656 1.765625 -1.765625 C 1.765625 -1.753906 1.765625 -1.742188 1.765625 -1.734375 C 1.765625 -1.722656 1.765625 -1.710938 1.765625 -1.703125 C 1.742188 -1.515625 1.742188 -1.332031 1.765625 -1.15625 C 1.796875 -0.988281 1.832031 -0.816406 1.875 -0.640625 Z M 1.875 -0.640625 "/></g></g></g><g fill="#ffffff" fill-opacity="1"><g transform="translate(13.976919, 17.24396)"><g><path d="M 1.75 -1.65625 C 1.875 -1.488281 1.945312 -1.3125 1.96875 -1.125 C 2 -0.9375 2 -0.742188 1.96875 -0.546875 C 1.957031 -0.472656 1.925781 -0.414062 1.875 -0.375 C 1.820312 -0.332031 1.765625 -0.3125 1.703125 -0.3125 C 1.640625 -0.300781 1.578125 -0.316406 1.515625 -0.359375 C 1.460938 -0.398438 1.425781 -0.457031 1.40625 -0.53125 C 1.382812 -0.613281 1.367188 -0.703125 1.359375 -0.796875 C 1.347656 -0.890625 1.335938 -0.984375 1.328125 -1.078125 C 1.316406 -1.109375 1.304688 -1.140625 1.296875 -1.171875 C 1.296875 -1.210938 1.289062 -1.253906 1.28125 -1.296875 C 1.257812 -1.273438 1.238281 -1.253906 1.21875 -1.234375 C 1.195312 -1.222656 1.179688 -1.210938 1.171875 -1.203125 C 1.085938 -1.085938 1.007812 -0.972656 0.9375 -0.859375 C 0.875 -0.742188 0.828125 -0.617188 0.796875 -0.484375 C 0.765625 -0.390625 0.71875 -0.316406 0.65625 -0.265625 C 0.59375 -0.210938 0.519531 -0.191406 0.4375 -0.203125 C 0.351562 -0.210938 0.28125 -0.25 0.21875 -0.3125 C 0.164062 -0.375 0.140625 -0.457031 0.140625 -0.5625 C 0.148438 -0.726562 0.160156 -0.898438 0.171875 -1.078125 C 0.179688 -1.253906 0.191406 -1.429688 0.203125 -1.609375 C 0.210938 -1.671875 0.226562 -1.726562 0.25 -1.78125 C 0.28125 -1.832031 0.335938 -1.859375 0.421875 -1.859375 C 0.484375 -1.859375 0.53125 -1.835938 0.5625 -1.796875 C 0.601562 -1.753906 0.628906 -1.703125 0.640625 -1.640625 C 0.648438 -1.628906 0.65625 -1.617188 0.65625 -1.609375 C 0.664062 -1.597656 0.671875 -1.582031 0.671875 -1.5625 C 0.722656 -1.601562 0.765625 -1.640625 0.796875 -1.671875 C 0.835938 -1.710938 0.878906 -1.742188 0.921875 -1.765625 C 1.066406 -1.867188 1.210938 -1.910156 1.359375 -1.890625 C 1.515625 -1.867188 1.644531 -1.789062 1.75 -1.65625 Z M 1.75 -1.65625 "/></g></g></g><g fill="#ffffff" fill-opacity="1"><g transform="translate(17.806134, 17.24396)"><g><path d="M 1.921875 -2.78125 C 1.929688 -2.40625 1.9375 -2.03125 1.9375 -1.65625 C 1.9375 -1.289062 1.9375 -0.925781 1.9375 -0.5625 C 1.9375 -0.414062 1.894531 -0.316406 1.8125 -0.265625 C 1.726562 -0.210938 1.617188 -0.207031 1.484375 -0.25 C 1.460938 -0.257812 1.4375 -0.257812 1.40625 -0.25 C 1.382812 -0.25 1.363281 -0.242188 1.34375 -0.234375 C 1.25 -0.191406 1.148438 -0.164062 1.046875 -0.15625 C 0.953125 -0.144531 0.859375 -0.148438 0.765625 -0.171875 C 0.617188 -0.203125 0.492188 -0.265625 0.390625 -0.359375 C 0.296875 -0.453125 0.226562 -0.566406 0.1875 -0.703125 C 0.144531 -0.835938 0.132812 -0.984375 0.15625 -1.140625 C 0.164062 -1.210938 0.179688 -1.285156 0.203125 -1.359375 C 0.296875 -1.628906 0.4375 -1.8125 0.625 -1.90625 C 0.8125 -2 1.039062 -2 1.3125 -1.90625 C 1.320312 -1.90625 1.332031 -1.898438 1.34375 -1.890625 C 1.363281 -1.890625 1.382812 -1.882812 1.40625 -1.875 C 1.414062 -2.03125 1.425781 -2.179688 1.4375 -2.328125 C 1.445312 -2.484375 1.457031 -2.640625 1.46875 -2.796875 C 1.46875 -2.816406 1.46875 -2.84375 1.46875 -2.875 C 1.46875 -2.90625 1.476562 -2.929688 1.5 -2.953125 C 1.519531 -2.984375 1.546875 -3.015625 1.578125 -3.046875 C 1.609375 -3.078125 1.640625 -3.097656 1.671875 -3.109375 C 1.703125 -3.109375 1.738281 -3.09375 1.78125 -3.0625 C 1.820312 -3.039062 1.851562 -3.015625 1.875 -2.984375 C 1.894531 -2.960938 1.90625 -2.929688 1.90625 -2.890625 C 1.914062 -2.859375 1.921875 -2.820312 1.921875 -2.78125 Z M 1.3125 -0.890625 C 1.320312 -0.898438 1.332031 -0.910156 1.34375 -0.921875 C 1.351562 -0.941406 1.359375 -0.957031 1.359375 -0.96875 C 1.359375 -1.019531 1.335938 -1.078125 1.296875 -1.140625 C 1.265625 -1.203125 1.21875 -1.25 1.15625 -1.28125 C 1.101562 -1.320312 1.046875 -1.34375 0.984375 -1.34375 C 0.960938 -1.34375 0.941406 -1.335938 0.921875 -1.328125 C 0.898438 -1.316406 0.890625 -1.304688 0.890625 -1.296875 C 0.867188 -1.234375 0.847656 -1.171875 0.828125 -1.109375 C 0.804688 -1.054688 0.789062 -1 0.78125 -0.9375 C 0.78125 -0.882812 0.796875 -0.847656 0.828125 -0.828125 C 0.859375 -0.804688 0.898438 -0.789062 0.953125 -0.78125 C 1.015625 -0.800781 1.078125 -0.816406 1.140625 -0.828125 C 1.203125 -0.847656 1.257812 -0.867188 1.3125 -0.890625 Z M 1.3125 -0.890625 "/></g></g></g><g clip-path="url(#20ae7893e7)"><g fill="#ffffff" fill-opacity="1"><g transform="translate(0.283573, 10.89085)"><g><path d="M 2.046875 -4.703125 C 2.046875 -4.578125 2.046875 -4.394531 2.046875 -4.15625 C 2.046875 -3.925781 2.046875 -3.671875 2.046875 -3.390625 C 2.046875 -3.117188 2.039062 -2.875 2.03125 -2.65625 C 2.03125 -2.4375 2.03125 -2.28125 2.03125 -2.1875 C 2.019531 -2.082031 2.007812 -1.972656 2 -1.859375 C 1.988281 -1.753906 1.972656 -1.644531 1.953125 -1.53125 C 1.898438 -1.238281 1.796875 -1.015625 1.640625 -0.859375 C 1.484375 -0.703125 1.304688 -0.628906 1.109375 -0.640625 C 0.910156 -0.648438 0.738281 -0.738281 0.59375 -0.90625 C 0.445312 -1.082031 0.390625 -1.3125 0.421875 -1.59375 C 0.460938 -2.144531 0.523438 -2.6875 0.609375 -3.21875 C 0.703125 -3.757812 0.796875 -4.304688 0.890625 -4.859375 C 0.921875 -5.003906 0.992188 -5.117188 1.109375 -5.203125 C 1.222656 -5.296875 1.363281 -5.332031 1.53125 -5.3125 C 1.695312 -5.289062 1.820312 -5.222656 1.90625 -5.109375 C 2 -4.992188 2.046875 -4.859375 2.046875 -4.703125 Z M 1.21875 -6.25 C 1.039062 -6.257812 0.890625 -6.332031 0.765625 -6.46875 C 0.648438 -6.601562 0.59375 -6.765625 0.59375 -6.953125 C 0.59375 -7.148438 0.660156 -7.316406 0.796875 -7.453125 C 0.929688 -7.585938 1.09375 -7.65625 1.28125 -7.65625 C 1.46875 -7.65625 1.625 -7.585938 1.75 -7.453125 C 1.875 -7.328125 1.9375 -7.171875 1.9375 -6.984375 C 1.9375 -6.785156 1.863281 -6.613281 1.71875 -6.46875 C 1.570312 -6.320312 1.40625 -6.25 1.21875 -6.25 Z M 1.21875 -6.25 "/></g></g></g></g><g fill="#ffffff" fill-opacity="1"><g transform="translate(2.754998, 10.89085)"><g><path d="M 4.203125 -3.203125 C 4.535156 -2.878906 4.734375 -2.539062 4.796875 -2.1875 C 4.859375 -1.832031 4.789062 -1.5 4.59375 -1.1875 C 4.394531 -0.882812 4.082031 -0.648438 3.65625 -0.484375 C 3.445312 -0.398438 3.226562 -0.332031 3 -0.28125 C 2.769531 -0.238281 2.550781 -0.226562 2.34375 -0.25 C 2.144531 -0.257812 1.941406 -0.300781 1.734375 -0.375 C 1.535156 -0.457031 1.347656 -0.550781 1.171875 -0.65625 C 0.960938 -0.789062 0.828125 -0.96875 0.765625 -1.1875 C 0.710938 -1.40625 0.726562 -1.601562 0.8125 -1.78125 C 0.894531 -1.957031 1.03125 -2.085938 1.21875 -2.171875 C 1.40625 -2.253906 1.625 -2.28125 1.875 -2.25 C 2.050781 -2.226562 2.222656 -2.207031 2.390625 -2.1875 C 2.566406 -2.175781 2.738281 -2.164062 2.90625 -2.15625 C 2.914062 -2.175781 2.925781 -2.195312 2.9375 -2.21875 C 2.945312 -2.238281 2.953125 -2.265625 2.953125 -2.296875 C 2.816406 -2.335938 2.679688 -2.378906 2.546875 -2.421875 C 2.410156 -2.472656 2.28125 -2.523438 2.15625 -2.578125 C 1.9375 -2.691406 1.71875 -2.800781 1.5 -2.90625 C 1.28125 -3.007812 1.082031 -3.132812 0.90625 -3.28125 C 0.613281 -3.53125 0.445312 -3.816406 0.40625 -4.140625 C 0.375 -4.472656 0.445312 -4.804688 0.625 -5.140625 C 0.789062 -5.460938 1.035156 -5.726562 1.359375 -5.9375 C 1.679688 -6.15625 2.03125 -6.300781 2.40625 -6.375 C 2.789062 -6.445312 3.15625 -6.429688 3.5 -6.328125 C 3.757812 -6.242188 3.972656 -6.113281 4.140625 -5.9375 C 4.316406 -5.769531 4.421875 -5.546875 4.453125 -5.265625 C 4.460938 -5.160156 4.445312 -5.046875 4.40625 -4.921875 C 4.363281 -4.796875 4.304688 -4.6875 4.234375 -4.59375 C 4.148438 -4.488281 4.046875 -4.445312 3.921875 -4.46875 C 3.796875 -4.5 3.671875 -4.546875 3.546875 -4.609375 C 3.285156 -4.753906 3.050781 -4.804688 2.84375 -4.765625 C 2.632812 -4.734375 2.429688 -4.601562 2.234375 -4.375 C 2.328125 -4.320312 2.410156 -4.273438 2.484375 -4.234375 C 2.566406 -4.203125 2.644531 -4.164062 2.71875 -4.125 C 2.96875 -3.976562 3.222656 -3.832031 3.484375 -3.6875 C 3.753906 -3.550781 3.992188 -3.390625 4.203125 -3.203125 Z M 4.203125 -3.203125 "/></g></g></g><g fill="#ffffff" fill-opacity="1"><g transform="translate(7.99574, 10.89085)"><g><path d="M 8.59375 -2.453125 C 8.601562 -2.304688 8.609375 -2.15625 8.609375 -2 C 8.617188 -1.851562 8.617188 -1.707031 8.609375 -1.5625 C 8.578125 -1.320312 8.492188 -1.125 8.359375 -0.96875 C 8.234375 -0.8125 8.078125 -0.71875 7.890625 -0.6875 C 7.660156 -0.644531 7.457031 -0.671875 7.28125 -0.765625 C 7.101562 -0.859375 6.972656 -1 6.890625 -1.1875 C 6.796875 -1.4375 6.722656 -1.691406 6.671875 -1.953125 C 6.617188 -2.210938 6.566406 -2.476562 6.515625 -2.75 C 6.484375 -2.863281 6.46875 -2.984375 6.46875 -3.109375 C 6.46875 -3.234375 6.457031 -3.351562 6.4375 -3.46875 C 6.414062 -3.476562 6.382812 -3.488281 6.34375 -3.5 C 6.175781 -3.28125 6.035156 -3.054688 5.921875 -2.828125 C 5.804688 -2.597656 5.738281 -2.34375 5.71875 -2.0625 C 5.707031 -1.957031 5.703125 -1.851562 5.703125 -1.75 C 5.703125 -1.644531 5.695312 -1.539062 5.6875 -1.4375 C 5.644531 -1.15625 5.535156 -0.929688 5.359375 -0.765625 C 5.179688 -0.609375 4.972656 -0.535156 4.734375 -0.546875 C 4.492188 -0.546875 4.285156 -0.632812 4.109375 -0.8125 C 3.941406 -1 3.851562 -1.234375 3.84375 -1.515625 C 3.84375 -1.722656 3.851562 -1.929688 3.875 -2.140625 C 3.894531 -2.347656 3.898438 -2.550781 3.890625 -2.75 C 3.890625 -2.976562 3.878906 -3.195312 3.859375 -3.40625 C 3.847656 -3.625 3.84375 -3.835938 3.84375 -4.046875 C 3.8125 -4.054688 3.78125 -4.066406 3.75 -4.078125 C 3.726562 -4.085938 3.703125 -4.097656 3.671875 -4.109375 C 3.585938 -3.992188 3.492188 -3.882812 3.390625 -3.78125 C 3.285156 -3.675781 3.207031 -3.5625 3.15625 -3.4375 C 3.03125 -3.15625 2.914062 -2.867188 2.8125 -2.578125 C 2.707031 -2.296875 2.601562 -2.019531 2.5 -1.75 C 2.46875 -1.664062 2.441406 -1.582031 2.421875 -1.5 C 2.398438 -1.414062 2.375 -1.332031 2.34375 -1.25 C 2.144531 -0.789062 1.820312 -0.570312 1.375 -0.59375 C 1.175781 -0.601562 1 -0.671875 0.84375 -0.796875 C 0.6875 -0.921875 0.570312 -1.085938 0.5 -1.296875 C 0.476562 -1.378906 0.453125 -1.460938 0.421875 -1.546875 C 0.398438 -1.640625 0.394531 -1.726562 0.40625 -1.8125 C 0.53125 -2.84375 0.671875 -3.882812 0.828125 -4.9375 C 0.835938 -5.019531 0.859375 -5.101562 0.890625 -5.1875 C 0.929688 -5.28125 0.984375 -5.351562 1.046875 -5.40625 C 1.128906 -5.46875 1.226562 -5.53125 1.34375 -5.59375 C 1.457031 -5.65625 1.554688 -5.679688 1.640625 -5.671875 C 1.734375 -5.648438 1.820312 -5.59375 1.90625 -5.5 C 2 -5.414062 2.078125 -5.328125 2.140625 -5.234375 C 2.191406 -5.160156 2.222656 -5.078125 2.234375 -4.984375 C 2.242188 -4.890625 2.257812 -4.796875 2.28125 -4.703125 C 2.675781 -4.972656 3 -5.175781 3.25 -5.3125 C 3.5 -5.445312 3.71875 -5.507812 3.90625 -5.5 C 4.09375 -5.5 4.28125 -5.421875 4.46875 -5.265625 C 4.664062 -5.117188 4.894531 -4.898438 5.15625 -4.609375 C 5.207031 -4.671875 5.25 -4.738281 5.28125 -4.8125 C 5.320312 -4.882812 5.375 -4.945312 5.4375 -5 C 5.707031 -5.257812 5.992188 -5.421875 6.296875 -5.484375 C 6.609375 -5.554688 6.910156 -5.523438 7.203125 -5.390625 C 7.492188 -5.265625 7.75 -5.035156 7.96875 -4.703125 C 8.195312 -4.367188 8.34375 -4.007812 8.40625 -3.625 C 8.476562 -3.238281 8.539062 -2.847656 8.59375 -2.453125 Z M 8.59375 -2.453125 "/></g></g></g><g clip-path="url(#9e6401f4d4)"><g fill="#ffffff" fill-opacity="1"><g transform="translate(17.031882, 10.89085)"><g><path d="M 3.890625 -5.1875 C 4.222656 -5.132812 4.507812 -5.015625 4.75 -4.828125 C 5 -4.640625 5.179688 -4.40625 5.296875 -4.125 C 5.410156 -3.84375 5.441406 -3.535156 5.390625 -3.203125 C 5.335938 -2.804688 5.234375 -2.4375 5.078125 -2.09375 C 4.921875 -1.757812 4.695312 -1.453125 4.40625 -1.171875 C 3.9375 -0.710938 3.367188 -0.488281 2.703125 -0.5 C 2.472656 -0.550781 2.242188 -0.59375 2.015625 -0.625 C 1.785156 -0.664062 1.554688 -0.726562 1.328125 -0.8125 C 0.898438 -0.957031 0.585938 -1.195312 0.390625 -1.53125 C 0.191406 -1.875 0.125 -2.273438 0.1875 -2.734375 C 0.269531 -3.273438 0.453125 -3.742188 0.734375 -4.140625 C 1.015625 -4.546875 1.390625 -4.882812 1.859375 -5.15625 C 2.253906 -5.394531 2.679688 -5.453125 3.140625 -5.328125 C 3.265625 -5.285156 3.390625 -5.253906 3.515625 -5.234375 C 3.640625 -5.210938 3.765625 -5.195312 3.890625 -5.1875 Z M 3.578125 -3.0625 C 3.660156 -3.320312 3.59375 -3.53125 3.375 -3.6875 C 3.164062 -3.832031 3.003906 -3.925781 2.890625 -3.96875 C 2.785156 -4.007812 2.6875 -3.988281 2.59375 -3.90625 C 2.507812 -3.832031 2.398438 -3.691406 2.265625 -3.484375 C 2.210938 -3.421875 2.175781 -3.367188 2.15625 -3.328125 C 1.9375 -2.941406 1.867188 -2.675781 1.953125 -2.53125 C 2.035156 -2.382812 2.289062 -2.296875 2.71875 -2.265625 C 2.9375 -2.265625 3.101562 -2.320312 3.21875 -2.4375 C 3.34375 -2.550781 3.460938 -2.757812 3.578125 -3.0625 Z M 3.578125 -3.0625 "/></g></g></g></g></g></g></svg>